PathFileType	4	(X/Y/Z)	/Users/visionmauri/1_8_1_f_Sports2D/1_8_1_f_Sports2D_px_person00.trc
DataRate	CameraRate	NumFrames	NumMarkers	Units	OrigDataRate	OrigDataStartFrame	OrigNumFrames
30.0	30.0	10	22	m	30.0	179	358
Frame#	Time	Hip			RHip			RKnee			RAnkle			RBigToe			RSmallToe			RHeel			LHip			LKnee			LAnkle			LBigToe			LSmallToe			LHeel			Neck			Head			Nose			RShoulder			RElbow			RWrist			LShoulder			LElbow			LWrist			
		X1	Y1	Z1	X2	Y2	Z2	X3	Y3	Z3	X4	Y4	Z4	X5	Y5	Z5	X6	Y6	Z6	X7	Y7	Z7	X8	Y8	Z8	X9	Y9	Z9	X10	Y10	Z10	X11	Y11	Z11	X12	Y12	Z12	X13	Y13	Z13	X14	Y14	Z14	X15	Y15	Z15	X16	Y16	Z16	X17	Y17	Z17	X18	Y18	Z18	X19	Y19	Z19	X20	Y20	Z20	X21	Y21	Z21	X22	Y22	Z22
179	5.983380018674136	473.87025839328606	858.0809992772147	0.0	435.3735228808111	862.6504204687595	0.0	421.44915178893484	1041.398975741136	0.0	437.1342584852317	1216.8498712962953	0.0	396.8575144789679	1268.9486709715056	0.0	394.18725678089993	1258.7300900934279	0.0	451.31086319931705	1246.2412561845638	0.0	511.70535316494164	859.7950960418166	0.0	500.16252811669904	1036.7663414839856	0.0	505.23816142269885	1225.7047054030156	0.0	466.3720535471404	1269.6330184944566	0.0	494.49823563189625	1272.807421979676	0.0	521.2316460264545	1253.4405260383076	0.0	462.2096335780957	586.7017514390328	0.0	431.68769341777653	469.052838273526	0.0	411.03289304508087	538.6305122430341	0.0	404.9560002667652	631.9764520697601	0.0	393.23140220071497	746.8345976648612	0.0	335.4683365319941	817.0198458675679	0.0	540.3014853295051	626.827904054346	0.0	585.0507545050234	751.335913571991	0.0	571.8875018785187	854.975002613423	0.0
180	6.016806722689076	469.6525123522225	857.1208933191404	0.0	431.2950317425922	861.8136094560568	0.0	418.77597063960576	1041.6050600221656	0.0	436.8378265758505	1216.1992797369855	0.0	397.7850340029027	1269.0123308731008	0.0	394.5043063987707	1259.2286912889163	0.0	449.9855899382447	1245.0367138204278	0.0	508.16604742196114	858.506211013487	0.0	498.97698940968536	1034.2924125571774	0.0	504.96114743899966	1224.8755816040527	0.0	472.48598874966643	1268.9025029613385	0.0	500.2881877822243	1272.147753761676	0.0	519.3537018671179	1252.4744452120553	0.0	457.731066986005	586.5388936962942	0.0	427.6512583213372	469.26216977069083	0.0	411.07874755157906	539.3169429323499	0.0	399.4880197266267	632.061132321503	0.0	386.88831614685313	745.3319703843604	0.0	332.48573295854754	817.7882104282936	0.0	536.5032942644597	625.7206220556824	0.0	583.6556388792083	750.258105565055	0.0	572.3871366994233	854.983304800946	0.0
181	6.050233426704015	465.98558106892443	855.2595809399877	0.0	427.5606147359215	860.6287757060956	0.0	416.7697418829246	1041.6727103153357	0.0	436.46993805533515	1215.5074271290393	0.0	395.8285145205212	1268.6966164346165	0.0	392.7672676651323	1259.028998561896	0.0	448.37032627239256	1243.8633392808617	0.0	503.914372313637	857.1630412554262	0.0	498.59207274267663	1032.994700378839	0.0	504.7772942294286	1224.7093785451787	0.0	474.68371991812876	1266.3178923373744	0.0	501.26984239480896	1270.841341397066	0.0	518.090852489577	1251.7158442543214	0.0	453.63553775901937	586.3989856724626	0.0	424.679498135889	468.96659951455695	0.0	410.4332195888423	539.1282518625252	0.0	393.90793473321986	631.6445273177701	0.0	382.02119226830376	745.4072514820896	0.0	330.6054221463827	818.662892352499	0.0	533.4485517580649	624.3838188233731	0.0	581.7092036889154	748.5471093785137	0.0	571.4755524423543	855.4797033811305	0.0
182	6.083660130718954	463.2332384159765	853.0749884702751	0.0	424.14438960015997	859.00753845888	0.0	414.6674132504059	1041.6166989965589	0.0	436.11659350147784	1214.9507934522599	0.0	393.3622357095088	1269.8528621991297	0.0	390.01743962128006	1259.5270708900475	0.0	447.69838776982857	1243.1734207319914	0.0	501.04381035635544	855.992961985424	0.0	497.71766312557145	1032.4485587647982	0.0	504.29466940685114	1223.731840896275	0.0	474.4325634542071	1264.0560870441338	0.0	499.15350748490226	1270.016868697842	0.0	516.5861342679859	1250.9020540851554	0.0	449.18638229469565	586.0568585765973	0.0	421.5254988668948	468.3679695623989	0.0	408.66710259882996	539.1634438605183	0.0	387.646671326876	632.1403711916806	0.0	377.24997715856625	747.7824962741097	0.0	330.4193192283935	818.8335568928746	0.0	530.8321905661516	622.7839961228384	0.0	579.5399675882996	746.6155359742402	0.0	569.8318398008854	854.7029189771612	0.0
183	6.117086834733893	461.161205728745	851.503771904133	0.0	420.8742623184892	857.6544048326795	0.0	412.00976436601064	1041.9224596787972	0.0	436.0005043295005	1214.8176936595612	0.0	394.6026389726736	1272.5152520601814	0.0	389.07523869547845	1261.6213667933414	0.0	448.44599561757167	1243.060796132795	0.0	500.4272965518067	855.0457865304295	0.0	496.7175407572133	1032.2740236661964	0.0	504.15834233538334	1221.7857334360394	0.0	473.6606469423047	1264.4049225470999	0.0	497.5182239975704	1270.4144641404066	0.0	515.5282143719153	1250.3429619201254	0.0	444.56965481606414	585.4352596332384	0.0	417.88323319956453	467.3203677655579	0.0	406.83732744007614	539.7588267475018	0.0	381.14810860359125	634.1156567258516	0.0	371.70414776276965	749.9878941978229	0.0	331.6393108334848	818.3141789459285	0.0	528.4034773875103	620.6051566106268	0.0	577.1532095817482	744.842919666357	0.0	568.8132785124283	851.5930783712938	0.0
184	6.150513538748832	459.54557194456925	850.5743196979491	0.0	417.7337179553742	857.2681595694596	0.0	409.73905157730667	1042.7251716056603	0.0	436.06053571863737	1215.336885753943	0.0	398.979540241649	1274.9770688718859	0.0	390.43796346151305	1264.2023430772067	0.0	449.77745425505685	1243.143753847039	0.0	500.70245658362506	854.1680844976635	0.0	496.3745285162296	1031.4809820941043	0.0	504.4036597717203	1220.5833283473744	0.0	471.74993142419765	1266.431008698262	0.0	497.11555228002163	1270.8905372750412	0.0	515.2011239103839	1249.980297540223	0.0	440.77293237170915	585.0360276244967	0.0	414.61802144558106	466.40220124756735	0.0	406.47961186241895	540.4229906438885	0.0	375.11196771420276	635.9347897152882	0.0	366.1998732434028	750.047398134641	0.0	333.305014372786	818.434276271323	0.0	526.3703074940762	618.4616873774717	0.0	574.2455478064845	742.7983197505588	0.0	568.6855832950225	846.1579196391365	0.0
185	6.183940242763772	458.092813952174	849.8648163101498	0.0	414.73490486529926	857.7957651769734	0.0	408.6737227419426	1043.3705114013228	0.0	436.04394761397583	1216.2670253502927	0.0	401.96598328894515	1276.396358781235	0.0	392.2919063712105	1265.737870439863	0.0	450.7621624466312	1242.8785627893928	0.0	500.16607892164336	853.3569738474104	0.0	496.24375737956467	1028.2315948417615	0.0	504.1838396601465	1221.0359507298542	0.0	469.9700281112266	1268.0557019886048	0.0	497.6771277188945	1270.9386464044637	0.0	515.1654666144972	1249.8883479460383	0.0	438.0957125253547	585.3003160728803	0.0	412.1212904254134	466.49838883795326	0.0	407.3763055277114	541.4003667875593	0.0	369.9296727022751	635.8956902082458	0.0	361.437241890504	748.6820469036697	0.0	334.55440861184576	820.3018958087865	0.0	525.068314683358	617.377075976081	0.0	570.9562013695408	740.0738817507781	0.0	568.8845458608301	840.6219568820559	0.0
186	6.217366946778712	455.9150142707303	849.7280210987349	0.0	411.7277034407363	858.4381293830496	0.0	408.2081751005967	1043.2811677229295	0.0	435.84471341783603	1216.5401074211666	0.0	400.9398100064582	1276.892247673567	0.0	392.66709739120006	1265.7652770836462	0.0	451.10309247629783	1242.1585497290541	0.0	498.23065019601495	852.6820100376318	0.0	495.86103726413853	1022.655252975273	0.0	503.64575398030973	1222.0285863977008	0.0	470.49200240931435	1270.0950032743617	0.0	498.26229337498194	1272.5165685138754	0.0	516.3582471724739	1250.6508285237867	0.0	436.0265342806501	586.2715001967423	0.0	410.23857622203377	467.5094674498378	0.0	408.2384132057482	543.9783417070986	0.0	366.1823847100938	634.4483571850302	0.0	357.20370755931157	747.2635270660721	0.0	335.3096249488855	823.5882625778153	0.0	524.4860500005562	617.4317202177734	0.0	568.0523810504408	737.1631986709299	0.0	568.9040590733531	838.0636937956341	0.0
187	6.250793650793651	452.4403348962562	850.7151385643512	0.0	408.3364844550921	858.4338276251697	0.0	407.5502672505216	1042.6436655795196	0.0	435.3374086044366	1215.1554562968595	0.0	397.6956495320908	1275.8723960009759	0.0	390.9925487450122	1264.5811871780397	0.0	450.6232527748821	1241.2283310679638	0.0	495.43396252694026	852.4924548918824	0.0	495.9372887974776	1018.1330276215148	0.0	504.097291887054	1222.7366661714882	0.0	472.16651164042037	1274.5332729467752	0.0	497.01597632098003	1276.9966609044468	0.0	519.0132922168825	1252.2110894030131	0.0	434.417534213991	587.693747282113	0.0	409.30014427010434	468.63844704249317	0.0	409.30542950242614	548.4191380937192	0.0	363.6866424053188	632.9111864415413	0.0	353.29884602066574	746.5484095890586	0.0	335.96467113196064	827.521458893984	0.0	524.4022019255489	618.0968634627383	0.0	566.2491502518096	735.4264652165514	0.0	568.6062733029872	839.6847456230712	0.0
188	6.28422035480859	448.8709489575159	851.9895704231043	0.0	404.79455608515735	858.0770580310328	0.0	407.0214073473108	1042.0183429938536	0.0	434.1959465572959	1212.7928395652725	0.0	395.2646937519619	1273.1867503945962	0.0	388.33314317604214	1262.6718378250293	0.0	448.8315298274209	1240.1731887901599	0.0	493.05266061521064	853.3297805033824	0.0	496.9300865797247	1017.6827390368105	0.0	506.2578558064365	1223.765388349067	0.0	473.17316791449764	1280.035941507444	0.0	495.25664436683263	1281.971574859011	0.0	520.9608845418962	1253.506822304132	0.0	433.92497287920656	589.5678692473094	0.0	409.90274515431065	470.0481405554433	0.0	411.71456006764464	553.6531689281841	0.0	361.4440909316501	631.5489397248119	0.0	349.991335423414	746.9048690561242	0.0	336.7767047381571	831.6273879343955	0.0	524.7362287074492	619.3368923613524	0.0	565.2226622401465	736.5470208042503	0.0	568.2365559106984	844.2736713533848	0.0
